<?xml version="1.0" encoding="UTF-8" standalone="no"?>
<svg width="304px" height="272px" viewBox="0 0 304 272" version="1.1" xmlns="http://www.w3.org/2000/svg" xmlns:xlink="http://www.w3.org/1999/xlink" xmlns:sketch="http://www.bohemiancoding.com/sketch/ns">
    <!-- Generator: Sketch 3.3.3 (12081) - http://www.bohemiancoding.com/sketch -->
    <title>Path 12</title>
    <desc>Created with Sketch.</desc>
    <defs></defs>
    <g id="Page-1" stroke="none" stroke-width="1" fill="none" fill-rule="evenodd" sketch:type="MSPage">
        <path d="M219.884766,77.6230469 C214.730469,43.3066406 186.583984,1.08984375 186.583984,1.08984375 C186.583984,1.08984375 245.779297,32.9179688 269.208984,93.8027344 C292.638672,154.6875 277.229492,190.726562 277.229492,190.726562 C277.229492,190.726562 290.235107,204.763672 299.199951,230.597656 C308.164795,256.431641 299.199951,271.941406 299.199951,271.941406 C299.199951,271.941406 285.865234,244.236328 257.589844,244.236328 C229.314453,244.236328 220.961828,274.377301 149.679993,269.139999 C52.9003906,262.029297 0.672851562,174.350586 0.672851562,174.350586 C0.672851562,174.350586 50.9541016,211.679688 100.818359,211.679688 C150.682617,211.679688 170.916016,194.664062 170.916016,194.664062 C170.916016,194.664062 151.472656,180.308594 116.414063,146.689453 C81.3554688,113.070312 29.1191406,40.9716797 29.1191406,40.9716797 C29.1191406,40.9716797 83.2436819,84.2135925 103.535156,99.4667969 C123.764841,114.673553 150.682617,132.351562 150.682617,132.351562 C150.682617,132.351562 123.328162,102.008383 111.189453,86.7167969 C94.9629281,66.275636 65.5869141,25.1533203 65.5869141,25.1533203 C65.5869141,25.1533203 119.734888,75.9407418 145.34375,96.5019531 C168.972844,115.473619 213.300781,143.751953 213.300781,143.751953 C213.300781,143.751953 225.039062,111.939453 219.884766,77.6230469 Z" id="Path-12" stroke="#979797" sketch:type="MSShapeGroup"></path>
    </g>
</svg>